<?xml version="1.0" encoding="UTF-8"?>
<!DOCTYPE svg PUBLIC "-//W3C//DTD SVG 1.1//EN" "http://www.w3.org/Graphics/SVG/1.1/DTD/svg11.dtd">
<!-- Creator: CorelDRAW X6 -->
<svg xmlns="http://www.w3.org/2000/svg" xml:space="preserve" width="100%" height="100%" version="1.1" style="shape-rendering:geometricPrecision; text-rendering:geometricPrecision; image-rendering:optimizeQuality; fill-rule:evenodd; clip-rule:evenodd"
viewBox="0 0 4863 4808"
 xmlns:xlink="http://www.w3.org/1999/xlink">
 <defs>
  <style type="text/css">
   <![CDATA[
    .fil2 {fill:black}
    .fil1 {fill:red}
    .fil0 {fill:black;fill-rule:nonzero}
   ]]>
  </style>
 </defs>
 <g id="图层_x0020_1">
  <metadata id="CorelCorpID_0Corel-Layer"/>
  <g id="_769129504">
   <polygon class="fil0" points="0,3967 4863,3967 4863,4020 0,4020 "/>
   <path class="fil1" d="M2839 2694c1114,-454 1789,-1373 1504,-2046 -285,-673 -1426,-851 -2540,-397 -466,190 -854,461 -1129,761 216,-194 491,-367 806,-495 948,-386 1919,-235 2162,338 243,573 -332,1355 -1280,1741 -254,103 -508,190 -752,197 -1889,54 -498,-1022 315,-1300 197,-67 615,-132 480,114 -71,129 -356,298 -581,365l1 38c165,14 379,56 185,256 -205,211 -761,266 -829,222l783 -776 -315 0 -755 741c25,154 854,263 1387,-87 117,-77 415,-470 -159,-408l2 0c647,-181 1156,-805 455,-773 -1202,55 -2321,1212 -2010,1458 473,375 1381,413 2269,51z"/>
   <path class="fil1" d="M4329 2759c0,55 -19,103 -59,142 -39,39 -86,59 -142,59 -55,0 -103,-20 -142,-59 -39,-39 -59,-86 -59,-142 0,-55 20,-103 59,-142 39,-39 86,-59 142,-59 55,0 103,20 142,59 39,39 59,86 59,142zm-22 0c0,-49 -17,-91 -52,-126 -35,-35 -77,-52 -126,-52 -49,0 -91,17 -126,52 -35,35 -52,77 -52,126 0,49 17,91 52,126 35,35 77,52 126,52 49,0 91,-17 126,-52 35,-35 52,-77 52,-126zm-252 -115l84 0c30,0 52,6 65,17 13,11 20,25 20,42 0,17 -7,32 -21,44 -10,8 -25,14 -44,17 9,4 15,8 18,11 4,3 9,10 17,20 8,10 13,19 17,26l22 39 -34 0 -21 -36c-16,-28 -28,-44 -37,-50 -8,-5 -22,-8 -41,-8l-18 0 0 93 -28 0 0 -216zm28 23l0 75 27 0c30,0 50,-2 60,-5 7,-2 13,-6 18,-13 5,-6 7,-13 7,-20 0,-10 -4,-19 -12,-27 -8,-7 -27,-11 -59,-11l-41 0z"/>
   <path class="fil1" d="M4426 3826l-184 0 0 -482 184 0 0 482zm-372 -93l126 94 -177 0 -48 -31c-190,68 -540,60 -603,-180 -33,-225 299,-297 460,-276 188,30 442,201 241,393zm-545 -148c10,215 432,221 461,12 10,-229 -450,-237 -461,-12zm-397 251c-153,2 -546,-41 -505,-279 20,-83 95,-136 167,-170 151,-67 328,-60 489,-46l0 86c-125,-16 -465,-38 -474,156 8,145 191,162 297,164l0 -178 177 0 0 256c-50,5 -101,8 -151,10zm-1061 -10l-184 0 0 -292c8,-204 300,-217 450,-187 100,24 199,72 201,187l0 292 -184 0 0 -307c-6,-139 -274,-132 -283,0l0 308zm-301 0l-184 0 0 -147 -284 0 0 147 -184 0 0 -292c1,-27 4,-51 16,-75 105,-183 630,-180 635,75l0 292zm-467 -213l284 0c0,-57 14,-124 -36,-164 -82,-56 -244,-38 -247,84l0 80zm-764 213l-184 0 0 -482c139,0 282,-8 422,4 84,10 232,71 147,174l-34 36c51,26 107,47 123,108 14,168 -272,159 -371,159l0 -78c61,0 161,5 178,-73 6,-92 -118,-89 -178,-89 0,-34 -2,-30 32,-30 72,-3 164,-72 65,-124 -60,-25 -139,-12 -200,-12l0 406z"/>
   <path class="fil2" d="M4071 4427l145 0 -62 173c-15,40 -54,60 -116,60l-131 0 0 -81 81 0c14,0 26,-8 35,-25l48 -126zm426 -109l0 78 -68 0 0 256c0,30 -30,45 -90,45l-145 0 0 -75 59 0c15,0 22,-5 22,-14l0 -210 -385 0 0 -78 385 0 0 -48 154 0 0 48 68 0zm14 401c18,0 27,-9 27,-28l0 -443 -684 0 0 471 658 0zm-807 -555l984 0 0 569c0,47 -36,70 -109,70l-875 0 0 -640zm-1090 -3l168 0 -26 37 229 0 -31 -37 178 0 30 37 372 0 0 67 -357 0 0 25 335 0 0 67 -335 0 0 26 335 0 0 67 -335 0 0 26 349 0 0 64 -807 0 0 14 -159 0 0 -238 -58 0 0 -84 50 0c14,0 24,-5 30,-17l32 -54zm104 314l295 0 0 -26 -295 0 0 26zm295 -93l0 -26 -295 0 0 26 295 0zm0 -93l0 -25 -295 0 0 25 295 0zm310 362l20 53c4,11 18,17 37,17l145 0 0 67 -227 0c-50,0 -84,-12 -95,-37l-46 -101 -58 0 0 154 -158 0 0 -154 -46 0 -114 108c-20,19 -52,29 -98,29l-176 0 0 -67 113 0c19,0 33,-3 42,-11l66 -59 -221 0 0 -70 435 0 0 -31 158 0 0 31 435 0 0 70 -210 0zm-1405 -51l240 0 0 -56 -240 0 0 56zm0 -131l240 0 0 -54 -240 0 0 54zm0 -129l240 0 0 -53 -240 0 0 53zm76 340c-23,44 -53,90 -74,101 -23,13 -48,19 -78,19l-109 0 0 -70 50 0c14,0 34,-28 43,-50l-129 0 0 -79 68 0 0 -314 -50 0 0 -20 -118 0 0 174 95 0 0 87 -95 0 0 174 114 0 0 87 -390 0 0 -87 122 0 0 -174 -109 0 0 -87 109 0 0 -174 -117 0 0 -87 390 0 0 26 50 0 0 -34 153 0 0 34 240 0 0 -31 154 0 0 31 45 0 0 81 -45 0 0 314 45 0 0 79 -100 0 16 39c4,10 16,14 30,14l45 0 0 70 -108 0c-52,0 -91,-16 -110,-51l-40 -73 -97 0zm-1111 81l0 47 -158 0 0 -645 440 0 0 244c0,22 -21,37 -64,47 43,13 64,31 64,53l0 200c0,34 -33,52 -100,53l-182 0zm0 -261l0 177 109 0c12,0 19,-7 19,-20l0 -140c0,-11 -15,-17 -45,-17l-82 0zm0 -253l0 166 95 0c22,0 32,-6 32,-17l0 -149 -128 0zm-208 -31l0 84 -168 0 0 90 176 0 0 85 -176 0 0 87 186 0 0 84 -186 0 0 70c0,27 -14,49 -41,67 -22,15 -54,23 -95,23l-209 0 0 -81 150 0c21,0 31,-13 31,-39l0 -39 -208 0 0 -84 208 0 0 -87 -190 0 0 -85 190 0 0 -90 -181 0 0 -84 181 0 0 -53 164 0 0 53 168 0z"/>
  </g>
 </g>
</svg>
