<?xml version="1.0" encoding="UTF-8"?>
<!DOCTYPE svg PUBLIC "-//W3C//DTD SVG 1.1//EN" "http://www.w3.org/Graphics/SVG/1.1/DTD/svg11.dtd">
<!-- Creator: CorelDRAW X6 -->
<svg xmlns="http://www.w3.org/2000/svg" xml:space="preserve" width="50px" height="50px" version="1.1" style="shape-rendering:geometricPrecision; text-rendering:geometricPrecision; image-rendering:optimizeQuality; fill-rule:evenodd; clip-rule:evenodd"
viewBox="0 0 50 50"
 xmlns:xlink="http://www.w3.org/1999/xlink">
 <defs>
  <style type="text/css">
   <![CDATA[
    .fil0 {fill:white}
    .fil1 {fill:#332C2B;fill-rule:nonzero}
   ]]>
  </style>
 </defs>
 <g id="图层_x0020_1">
  <metadata id="CorelCorpID_0Corel-Layer"/>
  <rect class="fil0" width="49.9997" height="49.9997"/>
  <path class="fil1" d="M11 20c-1,2 -2,4 -3,5 0,0 1,0 1,1 1,-1 3,-3 3,-5l-1 0zm3 6c0,1 1,1 2,2l-6 0c1,-1 2,-3 3,-5l-1 0c-1,2 -2,4 -3,5 0,1 -1,1 -1,1 0,0 0,1 0,1 0,0 1,0 7,-1 0,0 1,1 1,1l1 0c-1,-1 -2,-3 -3,-4l-1 0zm0 -6c1,2 2,4 4,5 0,0 0,-1 1,-1 -1,-1 -3,-3 -4,-5l-1 0z"/>
  <path id="1" class="fil1" d="M25 20c-1,2 -3,4 -5,4 0,0 0,1 1,1 2,-1 4,-2 5,-4 1,2 3,3 5,4 0,0 0,-1 1,-1 -2,-1 -4,-2 -5,-3 0,0 0,0 0,-1l-1 0zm0 8c0,-1 -1,-1 -2,-2 0,-1 0,-1 0,-2l-1 0c0,3 -1,5 -3,6 0,0 1,0 1,1 1,-1 2,-2 2,-4 1,1 2,1 2,2l1 -1zm2 -4c0,3 -1,5 -3,6 0,0 1,0 1,1 1,-1 2,-2 2,-4 1,1 1,3 3,4 0,0 0,-1 1,-1 -2,-1 -3,-3 -3,-4 0,0 0,-1 0,-2l-1 0z"/>
  <path id="2" class="fil1" d="M41 22l-6 0 0 -2 6 0 0 2zm1 -2l-7 0 0 3 7 0 0 -3zm1 5l0 -1 -10 0 0 1 3 0c0,1 -1,2 -1,2l6 0c0,2 0,2 -1,2 0,0 0,0 -1,0 0,0 -1,0 -2,0 0,0 0,1 0,1 1,0 2,0 2,0 0,0 1,0 1,0 0,0 1,-1 1,-3 0,0 0,0 0,0l-6 0c0,0 0,-1 0,-1l7 0z"/>
 </g>
</svg>
