<?xml version="1.0" encoding="UTF-8"?>
<!DOCTYPE svg PUBLIC "-//W3C//DTD SVG 1.1//EN" "http://www.w3.org/Graphics/SVG/1.1/DTD/svg11.dtd">
<!-- Creator: CorelDRAW X6 -->
<svg xmlns="http://www.w3.org/2000/svg" xml:space="preserve" width="100px" height="100px" version="1.1" style="shape-rendering:geometricPrecision; text-rendering:geometricPrecision; image-rendering:optimizeQuality; fill-rule:evenodd; clip-rule:evenodd"
viewBox="0 0 100 100"
 xmlns:xlink="http://www.w3.org/1999/xlink">
 <defs>
  <style type="text/css">
   <![CDATA[
    .fil0 {fill:white}
    .fil1 {fill:#332C2B;fill-rule:nonzero}
   ]]>
  </style>
 </defs>
 <g id="图层_x0020_1">
  <metadata id="CorelCorpID_0Corel-Layer"/>
  <rect class="fil0" width="99.9994" height="99.9994"/>
  <path class="fil1" d="M21 40c-1,4 -4,7 -7,9 0,0 1,1 1,1 3,-2 5,-6 7,-10l-2 0zm7 13c1,1 2,3 3,4l-12 1c2,-3 5,-6 7,-10l-2 -1c-2,4 -5,8 -6,9 -1,1 -2,2 -2,2 0,0 1,1 1,2 1,0 2,0 15,-1 1,1 1,2 2,3l2 -1c-1,-2 -4,-6 -6,-8l-1 1zm0 -12c2,4 5,8 7,10 0,0 1,-1 1,-1 -2,-2 -6,-6 -7,-9l-2 1z"/>
  <path id="1" class="fil1" d="M50 39c-2,4 -6,7 -11,9 0,0 1,1 1,1 4,-1 7,-4 10,-7 2,3 6,6 10,7 0,0 1,-1 1,-1 -4,-1 -8,-4 -10,-7 0,0 0,-1 1,-1l-2 -1zm0 17c-1,-1 -3,-3 -5,-4 0,-1 1,-2 1,-4l-2 0c-1,5 -2,10 -5,12 0,0 1,1 1,1 2,-2 4,-4 5,-8 2,1 3,3 4,4l1 -1zm3 -8c-1,6 -2,10 -5,12 0,0 1,1 1,1 2,-2 4,-4 5,-7 1,3 3,6 6,7 0,0 1,-1 1,-1 -3,-2 -5,-5 -6,-8 0,-1 0,-2 0,-3l-2 0z"/>
  <path id="2" class="fil1" d="M81 45l-12 0 0 -3 12 0 0 3zm2 -5l-15 0 0 6 15 0 0 -6zm3 10l0 -1 -21 0 0 1 5 0c0,1 -1,3 -2,4l13 0c0,3 -1,4 -2,5 0,0 -1,0 -1,0 -1,0 -2,0 -4,0 0,0 1,1 1,2 2,0 3,0 4,0 1,0 1,0 2,-1 1,-1 1,-3 2,-7 0,0 0,-1 0,-1l-12 0c0,-1 1,-2 1,-3l14 0z"/>
 </g>
</svg>
